<svg aria-hidden="true" style="position: absolute; width: 0; height: 0; overflow: hidden;" version="1.1" xmlns="http://www.w3.org/2000/svg" xmlns:xlink="http://www.w3.org/1999/xlink">
<defs>
<symbol id="icon-close" viewBox="0 0 32 32">
<path stroke-linejoin="round" stroke-linecap="round" stroke-miterlimit="4" stroke-width="1.3333" d="M23 23l-14-14M23 9l-14 14"></path>
</symbol>
<symbol id="icon-search" viewBox="0 0 32 32">
<path d="M32 16c0 8.837-7.163 16-16 16s-16-7.163-16-16c0-8.837 7.163-16 16-16s16 7.163 16 16z"></path>
<path fill="none" stroke="#fff" style="stroke: var(--color1, #fff)" stroke-linejoin="round" stroke-linecap="round" stroke-miterlimit="4" stroke-width="0.8667" d="M15.445 19.889c0.016 0 0.035 0 0.054 0 2.455 0 4.445-1.99 4.445-4.445s-1.99-4.445-4.445-4.445c-0.019 0-0.038 0-0.057 0l0.003-0c-2.431 0.031-4.39 2.009-4.39 4.444s1.959 4.414 4.387 4.444l0.003 0zM21 21l-2.417-2.417"></path>
</symbol>
</defs>
</svg>
