<?xml version="1.0" standalone="no"?>
<!DOCTYPE svg PUBLIC "-//W3C//DTD SVG 20010904//EN"
 "http://www.w3.org/TR/2001/REC-SVG-20010904/DTD/svg10.dtd">
<svg version="1.0" xmlns="http://www.w3.org/2000/svg"
 width="700.000000pt" height="700.000000pt" viewBox="0 0 700.000000 700.000000"
 preserveAspectRatio="xMidYMid meet">
<metadata>
Created by potrace 1.14, written by Peter Selinger 2001-2017
</metadata>
<g transform="translate(0.000000,700.000000) scale(0.100000,-0.100000)"
fill="#000000" stroke="none">
<path d="M976 6783 c-1 -1 -89 -3 -195 -3 -261 -2 -325 -21 -434 -131 -62 -63
-109 -151 -121 -227 -8 -56 -8 -5788 0 -5844 26 -170 183 -324 361 -353 73
-12 5794 -7 5848 5 160 36 289 159 330 315 14 54 15 369 15 2960 0 3203 6
2944 -61 3062 -33 57 -113 134 -169 163 -106 54 84 50 -2860 53 -1491 1 -2713
1 -2714 0z"/>
</g>
</svg>
